<svg id="Capa_1" enable-background="new 0 0 512 512" height="512" viewBox="0 0 512 512" width="512" xmlns="http://www.w3.org/2000/svg"><g><g><g><g><g><g><g><ellipse cx="256" cy="256" fill="#ffce00" rx="256" ry="256" transform="matrix(.707 -.707 .707 .707 -106.039 256)"/></g></g></g></g></g></g><path d="m511.285 275.276-129.529-129.528-251.511 289.26 71.157 71.157c17.593 3.822 35.86 5.835 54.598 5.835 134.9 0 245.43-104.342 255.285-236.724z" fill="#ffa300"/><g><path d="m313 76.992 68.755 68.755v289.261h-251.51v-358.016z" fill="#fff"/></g><g><path d="m381.755 145.748-68.755-68.756h-56.879v358.016h125.634z" fill="#e9edf5"/></g><g><path d="m313 145.747v-68.755l68.756 68.755z" fill="#bec3d2"/></g><g><ellipse cx="256" cy="213.082" fill="#ff6c52" rx="78.895" ry="78.895" transform="matrix(.16 -.987 .987 .16 4.663 431.644)"/></g><g><path d="m334.895 213.081c0-43.532-35.257-78.826-78.774-78.892v157.783c43.516-.064 78.774-35.358 78.774-78.891z" fill="#ff432e"/></g><g><path d="m253.979 251.465-3.355-9.557h-26.747l-3.357 9.557h-19.832l25.527-66.399h21.967l25.629 66.399zm-16.781-49.476-8.645 24.987h17.289z" fill="#fff"/><path d="m297.705 198.832v19.212h-11.797v-19.212h-17.086v-10.452h17.086v-18.417h11.797v18.417h17.086v10.453h-17.086z" fill="#e9edf5"/></g><g><path d="m164.855 312.756h27.692v30h-27.692z" fill="#555a66"/></g><g><path d="m210.605 312.756h131.371v30h-131.371z" fill="#dce1eb"/></g><g><path d="m256.121 312.756h85.856v30h-85.856z" fill="#bec3d2"/></g><g><path d="m164.855 370.421h27.692v30h-27.692z" fill="#555a66"/></g><g><path d="m210.605 370.421h131.371v30h-131.371z" fill="#dce1eb"/></g><g><path d="m256.121 370.421h85.856v30h-85.856z" fill="#bec3d2"/></g></g></svg>